inDegrees=no
num_controls=7
num_derivatives=13
num_iterations=153
num_multipliers=7
num_parameters=0
num_slacks=7
num_states=26
objective=0.650795
objective_accelerations=0.038942
objective_balance=0.005702
objective_effort=0.025160
objective_height=0.373807
objective_ligament=0.207184
solver_duration=1953.674734
status=Solve_Succeeded
success=true
DataType=double
version=3
OpenSimVersion=4.5
endheader
time	/jointset/ground_pelvis/pelvis_tilt/value	/jointset/ground_pelvis/pelvis_tx/value	/jointset/ground_pelvis/pelvis_ty/value	/jointset/hip_l/hip_flexion_l/value	/jointset/hip_l/hip_adduction_l/value	/jointset/hip_l/hip_rotation_l/value	/jointset/back/lumbar_extension/value	/jointset/patellofemoral_l/patellar_flexion_l/value	/jointset/knee_l/knee_flexion_l/value	/jointset/knee_l/knee_adduction_l/value	/jointset/knee_l/knee_rotation_l/value	/jointset/ankle_l/ankle_angle_l/value	/jointset/subtalar_l/subtalar_angle_l/value	/jointset/ground_pelvis/pelvis_tilt/speed	/jointset/ground_pelvis/pelvis_tx/speed	/jointset/ground_pelvis/pelvis_ty/speed	/jointset/hip_l/hip_flexion_l/speed	/jointset/hip_l/hip_adduction_l/speed	/jointset/hip_l/hip_rotation_l/speed	/jointset/back/lumbar_extension/speed	/jointset/patellofemoral_l/patellar_flexion_l/speed	/jointset/knee_l/knee_flexion_l/speed	/jointset/knee_l/knee_adduction_l/speed	/jointset/knee_l/knee_rotation_l/speed	/jointset/ankle_l/ankle_angle_l/speed	/jointset/subtalar_l/subtalar_angle_l/speed	/forceset/tau_hip_flexion_l	/forceset/tau_hip_adduction_l	/forceset/tau_hip_rotation_l	/forceset/tau_knee_flexion_l	/forceset/tau_ankle_angle_l	/forceset/tau_subtalar_angle_l	/forceset/tau_lumbar_extension	lambda_cid13_p0	lambda_cid13_p1	lambda_cid13_p2	lambda_cid13_p3	lambda_cid13_p4	lambda_cid13_p5	lambda_cid14_p0	/jointset/ground_pelvis/pelvis_tilt/accel	/jointset/ground_pelvis/pelvis_tx/accel	/jointset/ground_pelvis/pelvis_ty/accel	/jointset/hip_l/hip_flexion_l/accel	/jointset/hip_l/hip_adduction_l/accel	/jointset/hip_l/hip_rotation_l/accel	/jointset/back/lumbar_extension/accel	/jointset/patellofemoral_l/patellar_flexion_l/accel	/jointset/knee_l/knee_flexion_l/accel	/jointset/knee_l/knee_adduction_l/accel	/jointset/knee_l/knee_rotation_l/accel	/jointset/ankle_l/ankle_angle_l/accel	/jointset/subtalar_l/subtalar_angle_l/accel	gamma_cid13_p0	gamma_cid13_p1	gamma_cid13_p2	gamma_cid13_p3	gamma_cid13_p4	gamma_cid13_p5	gamma_cid14_p0
1.5	-0.4585474173733277	-0.06886348767285523	0.7904993002242839	1.08915800897849	-0.3809551508331369	-0.362638679674359	-0.2289733478979518	0.5218269297531081	0.5218269297529039	-0.09114149737921073	-0.1744660397274204	-0.06153079516363329	-0.05771733420575766	0.9929845801687007	0.3988019382579419	0.4048794568739004	-2.34781035131211	0.2229291865963047	-0.5060780775963606	0.3009908821082211	-1.231717691076232	-1.231717691076225	0.02110088468803609	-0.0004028611873593687	0.08966994981893037	0.2869217545943484	-0.2172254086561029	0.04534115836423095	-0.01347413706648401	-0.120444058689214	0.08312062203386268	0.05284026759246486	0.1955722805934772	-6.355169813206497	-23.91186124587001	5.847666968501591	-7.727575821960017	-526.5991614925306	-56.0981429856654	-37.76501005084337	0.5558137299739742	0.7023209285099611	-0.2641024760819385	-1.561292148449768	0.2538818372073957	-0.2389821104088512	1.510373369669268	-0.9397562943928575	-0.9397562943928536	-0.4082093801748364	0.004516606249233519	0.08727507756338104	0.3706162898918614	5.580205738215646e-08	2.232424081647084e-07	-3.193772871179908e-07	1.01676369592386e-07	1.247038443877604e-07	-1.578021857130071e-07	9.72325684102533e-08
1.51	-0.4485903343469039	-0.06484078798387657	0.7945340540433041	1.065603871993843	-0.3787141538689292	-0.3677108795647026	-0.2258891883282793	0.5094645285563725	0.5094645285563053	-0.09095259871251707	-0.1744702103041274	-0.0606299633869722	-0.05483072224737139	0.998285616341421	0.405685196790102	0.4019818456375788	-2.362682650072848	0.2252342629965783	-0.5083077260223539	0.3158082132369308	-1.240584571013673	-1.240584571013665	0.01664856834222563	-0.0004316255468687402	0.09048251549409843	0.2903577853371416	-0.2096483152288379	0.04411313667971938	-0.01362726689925761	-0.1195075383358733	0.08157453021191879	0.05136950715587896	0.1897238297695435	-6.649258921753229	-23.33408573681326	5.884019835180825	-7.29083476874411	-523.0068587745441	-56.26724641747364	-38.14746886854007	0.4953022117201304	0.6734250257062943	-0.3159779185270119	-1.400022188137487	0.2134115539661071	-0.2067459810929858	1.462490196076793	-0.8334776167912988	-0.833477616791053	-0.4682641195002645	-0.006712835620818777	0.07616446448568179	0.3236747653800382	6.486883711385172e-08	2.209924161803091e-07	-3.396986674612092e-07	9.10733600636028e-08	1.470843823816383e-07	-1.594624376870269e-07	1.002533933356481e-07
1.52	-0.4385846302285943	-0.06075083636754888	0.7985371542557372	1.041911047331938	-0.3764511879382145	-0.372803733893782	-0.2226578400049984	0.4970187938055893	0.4970187938056557	-0.0908091274808244	-0.1744746965001437	-0.05972142252316105	-0.05191103432177575	1.002708798546105	0.4122523237277489	0.3985487355564725	-2.375547886763653	0.2273229798980005	-0.5102089653442823	0.3304286328298403	-1.248384401885976	-1.248384401885967	0.0120153976877713	-0.0004659850491684881	0.09121176724895336	0.2935369480362149	-0.2020712218015569	0.04288511499521713	-0.01378039673203759	-0.1185710179825317	0.08002843838997693	0.04989874671930405	0.1838753789456209	-6.9508880894542	-22.75681392715496	5.922536603926385	-6.840643369467506	-519.5082946336707	-56.46247947471789	-38.51446751748653	0.3802429363666092	0.6390946096073143	-0.3712022450388954	-1.159879734463037	0.2106099374371395	-0.1733002895958707	1.470991062509226	-0.7263464813653682	-0.7263464813653652	-0.4443802419036024	0.003397577691179258	0.07061229350077783	0.319242681147892	7.202538888628323e-08	2.20462703507193e-07	-3.553734711052522e-07	8.266408349025856e-08	1.674084736041424e-07	-1.58717724111383e-07	1.025522072965885e-07
1.53	-0.4285390618879414	-0.0565968686864522	0.8025032991590385	1.01809956295328	-0.3741684389333316	-0.3779139468142811	-0.2192814565081629	0.4845003513247825	0.484500351324786	-0.09071294055321569	-0.1744794933407696	-0.05880606488515398	-0.04896090198731738	1.006254766727066	0.4184805302775167	0.3945945469869467	-2.38640392626124	0.2291888300524086	-0.5117785898365408	0.3448029657164274	-1.255119494385693	-1.255119494385693	0.007194689069655601	-0.000492384607000334	0.09184451780122591	0.2964431069628455	-0.1945061717481735	0.04157917349741515	-0.01392925373508795	-0.117603849895576	0.07843139006351094	0.04837919327362001	0.1779905321930426	-7.276835660098826	-22.15634226355029	5.959923226972838	-6.335342748719468	-516.0789389537302	-56.62440905075947	-38.86534179884673	0.3192734612599969	0.6055960119084876	-0.4203428287327176	-0.9966885805496768	0.168855435566309	-0.1404516407544506	1.413889278618867	-0.6194216316295483	-0.619421631630918	-0.5049916548988191	-0.005597135754128918	0.05732180264230274	0.2693487356021249	7.715232345199701e-08	2.217607876023152e-07	-3.661112870064214e-07	7.658564818206816e-08	1.85547590132062e-07	-1.554177346392213e-07	1.040838846077959e-07
1.54	-0.4184625339250201	-0.05238243647300846	0.8064273390434797	0.9941898736750175	-0.3718681748506809	-0.3830381876020423	-0.2157626827070843	0.4719200917195083	0.4719200917194465	-0.09066577580841439	-0.1744845418596215	-0.05788483666831383	-0.04598309881615638	1.008900722999988	0.4243452301971595	0.3901277317844918	-2.395188866684554	0.2308259954517611	-0.5130145387973424	0.3589066936784319	-1.2607478267796	-1.260747826779609	0.002210961126209973	-0.0005163206941813463	0.09238588301557117	0.2990711153767359	-0.1869411216947763	0.04027323199962222	-0.01407811073813628	-0.1166366818086196	0.07683434173704717	0.04685963982794671	0.172105685440473	-7.609446244337383	-21.55636813731447	5.999290350120404	-5.819773135376498	-512.7286580221927	-56.81018627981157	-39.19961922983192	0.2002405547586394	0.5663932835823104	-0.473727571624709	-0.7456599196086633	0.1648729864260087	-0.1065651833044847	1.416870077592704	-0.5049944602034792	-0.5049944602034792	-0.4769841069695804	0.003890271821371411	0.05233522591534838	0.2636125785998849	8.180896576471706e-08	2.235703622318455e-07	-3.743642984801622e-07	7.027922487839083e-08	2.042783809372447e-07	-1.519925510864246e-07	1.052883532389398e-07
1.55	-0.408364042837347	-0.04811122213203805	0.810304220260777	0.9702026004526987	-0.3695527069433418	-0.3881731303206206	-0.2121043924960365	0.4592889957944577	0.4592889957943703	-0.090669325011725	-0.1744897693320873	-0.0569586958306322	-0.04298046492423768	1.010642685709877	0.4298319681348595	0.3851683959985395	-2.401914950591021	0.2322265457652412	-0.5139182319453849	0.3726951400322933	-1.265282689717084	-1.265282689717093	-0.002948002005657251	-0.0005269475628571515	0.09282803428461542	0.301405740074613	-0.1793460332981003	0.03883689329306458	-0.01423321071362128	-0.115868108464213	0.07552531673120039	0.04523215988099217	0.1661700493376976	-7.864862880836831	-20.92623617338745	6.037502698624191	-5.334231141368451	-509.5395473288091	-56.94004110319093	-39.51696299932056	0.1379672161946403	0.5299755817307069	-0.5190070384051187	-0.5834404608770133	0.1214688982802376	-0.07381559470301281	1.351400639467465	-0.3994532486646069	-0.399453248664662	-0.5394131748181785	-0.003295598991892947	0.03802048467740711	0.2109073495652988	8.59237496120313e-08	2.259692629118893e-07	-3.797543831136052e-07	6.371011975382641e-08	2.236908834097089e-07	-1.484231221798529e-07	1.061158205647933e-07
1.56	-0.3982527735051575	-0.04378710810511729	0.8141291140289497	0.9461585948243736	-0.3672244689639744	-0.3933154188135057	-0.2083099040764129	0.4466182070324055	0.4466182070322877	-0.09072527599806002	-0.1744950543597951	-0.05602856039880422	-0.03995598079850342	1.011456371903391	0.4349251673872284	0.3797302419596046	-2.406535347885943	0.2333800098575668	-0.5144836936593814	0.38614633539354	-1.268686394180318	-1.268686394180328	-0.008269395478438787	-0.0005278317427255481	0.09318480184479777	0.3034411621398376	-0.1717509449014062	0.03740055458651875	-0.01438831068912015	-0.1150995351198037	0.07421629172535719	0.04360467993405225	0.160234413234933	-8.125850224595021	-20.29622973436022	6.076992874266871	-4.84247091937648	-506.4115486716307	-57.09062800612381	-39.81723734343443	0.01458525148358861	0.4876855465161183	-0.5694912222212203	-0.3245225972995371	0.115455742195108	-0.03891889649527765	1.349419879069795	-0.2787627653536221	-0.2787627653536187	-0.5094701751524364	0.005838809582882199	0.03525848414299287	0.2037720520694125	8.941140400001934e-08	2.253845384091807e-07	-3.829296017013467e-07	5.673635317489679e-08	2.418938456958106e-07	-1.433824831518192e-07	1.060239354117713e-07
1.57	-0.3881379811956012	-0.03941407989836675	0.8178973082759818	0.922078855658758	-0.3648859086278337	-0.3984616949112764	-0.2043826391460224	0.4339189937332401	0.4339189937332013	-0.09083517528597218	-0.1745002561961941	-0.0550952963608108	-0.03691263071085328	1.011347357845767	0.4396098793334492	0.3738348754550521	-2.409057192322461	0.2342901177710155	-0.5147180954447103	0.3992486247226681	-1.270959567009067	-1.270959567009068	-0.01372903580618758	-0.000512548432368637	0.09345755401647396	0.3051791888141298	-0.1643442128989169	0.03596777987031466	-0.0145358676068655	-0.1142575101520348	0.07280260519917162	0.04196557913112489	0.1544229586169837	-8.438014774351895	-19.65299750694071	6.115267312703772	-4.300099563228704	-503.5339253139684	-57.21980579823691	-40.10045020190868	-0.04684104562371139	0.4482838143790496	-0.6105655243485086	-0.1627035895959411	0.07247570755190266	-0.00759755696838186	1.281929565561553	-0.1721105588122821	-0.1721105588110189	-0.5669798416024215	-0.0007183878236154194	0.02171965922343236	0.1513777021329751	9.21151465638496e-08	2.210702824280315e-07	-3.833362377319612e-07	4.925675977801066e-08	2.585848827489593e-07	-1.365028314719581e-07	1.047828596601548e-07
